<?xml version="1.0" standalone="no"?>
<!DOCTYPE svg PUBLIC "-//W3C//DTD SVG 20010904//EN"
 "http://www.w3.org/TR/2001/REC-SVG-20010904/DTD/svg10.dtd">
<svg version="1.0" xmlns="http://www.w3.org/2000/svg"
 width="1024.000000pt" height="1024.000000pt" viewBox="0 0 1024.000000 1024.000000"
 preserveAspectRatio="xMidYMid meet">

<g transform="translate(0.000000,1024.000000) scale(0.100000,-0.100000)"
fill="#000000" stroke="none">
<path d="M4940 8857 c-3 -2 -43 -7 -90 -10 -223 -15 -566 -88 -810 -172 -283
-99 -625 -272 -875 -443 -120 -82 -263 -193 -264 -204 -1 -13 243 -260 314
-317 148 -121 359 -251 592 -367 95 -47 173 -89 173 -93 0 -4 -9 -16 -21 -27
-32 -29 -134 -185 -170 -261 -18 -37 -44 -108 -59 -158 l-26 -90 16 -95 c27
-159 64 -261 133 -368 l34 -54 6 90 c7 96 48 306 66 341 10 18 7 21 -46 37
-32 10 -62 21 -66 24 -13 11 100 146 197 237 l87 81 -35 71 c-20 39 -36 73
-36 75 0 3 60 45 133 93 293 194 602 315 881 344 139 15 434 6 536 -16 174
-38 358 -117 470 -203 61 -46 175 -158 196 -192 5 -8 37 -29 71 -46 l61 -31
-31 56 c-16 31 -39 65 -49 77 -18 21 -18 21 99 75 259 119 517 276 685 417
118 98 320 301 312 314 -17 27 -246 194 -389 283 -441 276 -946 455 -1470 520
-63 8 -618 19 -625 12z m368 -437 c51 0 182 -24 182 -33 0 -5 -34 -45 -76 -88
l-76 -78 11 -83 c7 -46 15 -93 18 -105 7 -32 -4 -30 -112 21 l-95 45 -100 -46
c-55 -26 -102 -44 -106 -41 -4 5 11 94 31 185 4 18 -11 40 -70 102 -65 68 -88
101 -70 101 12 0 209 31 210 33 1 1 26 48 56 104 l53 103 59 -110 c52 -98 61
-110 85 -110z m578 88 c8 -25 17 -34 39 -39 34 -6 35 -22 3 -56 -15 -16 -19
-30 -15 -51 8 -39 0 -45 -30 -25 -20 14 -30 14 -57 5 -45 -17 -46 -16 -35 23
8 26 6 42 -6 64 -20 39 -19 41 9 41 16 0 31 12 47 35 13 19 27 35 30 35 3 0
10 -15 15 -32z m-1416 13 c0 -19 51 -61 75 -61 30 0 32 -11 4 -36 -20 -18 -20
-28 -3 -86 4 -14 1 -15 -31 -5 -30 9 -41 8 -65 -6 -40 -24 -43 -22 -37 24 5
36 2 44 -26 69 -30 27 -31 29 -12 35 52 17 65 26 71 50 6 23 24 36 24 16z
m1876 -385 c9 -4 61 -12 116 -18 54 -6 98 -15 98 -19 0 -3 -38 -46 -84 -95
l-83 -89 17 -108 c9 -59 14 -110 10 -112 -3 -2 -53 18 -110 46 l-103 49 -105
-50 c-57 -28 -106 -49 -108 -48 -2 2 6 54 18 116 l21 111 -88 93 -89 93 40 7
c21 4 77 13 124 20 l85 13 58 107 59 107 53 -108 c29 -59 61 -111 71 -115z
m-2178 91 c25 -49 53 -92 62 -97 13 -7 172 -30 208 -30 20 0 -1 -31 -78 -114
-39 -42 -70 -84 -69 -93 0 -10 8 -60 18 -110 15 -76 15 -93 4 -93 -7 0 -55 20
-106 44 l-94 43 -109 -53 c-59 -29 -110 -51 -112 -50 -1 2 4 47 13 100 8 53
15 104 15 113 0 10 -36 56 -80 103 -44 47 -80 87 -80 90 0 3 51 14 113 25
l112 20 55 112 c63 129 54 130 128 -10z m2803 -212 c43 -10 46 -25 10 -57 -29
-26 -32 -34 -27 -64 6 -29 4 -34 -11 -34 -10 0 -29 7 -42 16 -18 13 -28 14
-47 5 -31 -14 -91 -14 -99 -1 -3 5 3 18 14 29 39 39 44 59 21 90 -11 16 -20
32 -20 35 0 3 21 6 48 6 42 0 50 4 77 38 l30 37 9 -47 c8 -40 13 -48 37 -53z
m-3544 55 c17 -30 19 -31 72 -24 60 7 59 9 30 -63 -12 -30 -11 -34 10 -57 43
-46 6 -71 -66 -45 -25 8 -36 7 -64 -10 -48 -30 -55 -27 -51 23 3 40 1 46 -27
67 -17 12 -31 26 -31 30 0 4 16 13 35 19 28 9 37 19 45 51 13 47 23 49 47 9z"/>
<path d="M7916 8612 c-106 -343 -303 -664 -553 -903 -208 -198 -388 -321 -691
-473 l-92 -46 24 -39 c37 -58 85 -167 108 -246 30 -102 37 -326 13 -431 -52
-233 -207 -442 -425 -571 -19 -11 -29 -24 -26 -33 3 -8 19 -53 36 -100 77
-210 106 -416 97 -690 -3 -96 -11 -211 -17 -255 -16 -114 -63 -306 -99 -403
-17 -46 -31 -85 -31 -87 0 -7 128 26 223 57 81 26 96 34 83 44 -24 17 -20 21
32 28 68 9 193 51 287 96 75 36 185 108 185 121 0 4 -20 12 -45 19 -25 7 -45
16 -45 20 0 3 37 19 83 35 124 42 275 116 343 168 65 49 134 120 134 137 0 6
-38 10 -92 10 -147 0 -156 8 -52 42 217 71 408 237 503 438 17 35 29 65 28 66
-1 2 -29 -6 -62 -17 -64 -21 -255 -38 -255 -23 0 5 26 20 57 34 125 54 269
165 343 266 65 86 129 231 154 347 6 27 6 28 -17 12 -59 -38 -311 -104 -361
-94 -13 3 13 25 82 72 202 136 349 340 411 567 23 85 36 190 24 190 -4 0 -18
-11 -31 -24 -31 -34 -121 -92 -179 -117 -53 -23 -212 -63 -220 -56 -2 3 22 23
55 45 173 118 289 282 348 492 26 91 24 377 -3 498 -10 46 -22 84 -27 85 -4 1
-16 -18 -25 -43 -10 -25 -39 -83 -66 -129 -145 -250 -361 -465 -623 -620 -120
-70 -344 -151 -462 -166 l-55 -7 -1 91 -1 91 37 0 c171 0 488 124 636 249 158
133 304 362 355 556 28 107 33 281 13 400 -17 99 -89 329 -108 344 -9 8 -17
-4 -30 -47z m-337 -994 c-53 -103 -199 -256 -315 -331 -61 -40 -184 -102 -184
-93 0 2 30 22 66 46 111 72 204 151 324 278 63 66 116 121 118 121 1 1 -3 -9
-9 -21z m216 -721 c-73 -252 -376 -471 -684 -494 -80 -6 -84 -5 -76 13 4 10
17 45 29 77 19 50 24 57 48 57 15 0 72 15 125 32 l98 33 -115 6 c-63 4 -121 7
-127 8 -9 1 -13 21 -13 66 l0 65 63 0 c85 0 236 26 324 55 97 33 230 99 290
145 46 35 48 35 51 14 2 -12 -4 -47 -13 -77z m-115 -641 c-29 -75 -99 -167
-186 -239 -76 -65 -235 -147 -324 -168 -83 -20 -272 -17 -347 5 -35 10 -63 19
-63 21 0 1 20 22 44 47 41 43 47 46 112 52 91 10 217 35 228 47 6 5 -13 9 -50
9 -56 0 -194 17 -201 24 -2 2 12 27 32 56 19 28 35 55 35 60 0 4 69 10 153 13
222 8 372 48 518 136 62 38 64 38 67 17 2 -13 -7 -48 -18 -80z m-220 -567 c0
-24 -64 -130 -112 -183 -106 -119 -258 -209 -408 -243 -69 -15 -241 -7 -330
16 -96 25 -114 36 -79 50 13 6 57 24 97 41 86 37 278 100 304 100 43 0 11 17
-70 36 -130 32 -176 57 -212 116 -17 28 -29 52 -27 54 2 3 42 -4 88 -15 139
-32 255 -44 394 -39 130 5 253 30 314 63 32 17 41 18 41 4z m-581 -648 l115
-6 -51 -45 c-80 -72 -382 -234 -401 -216 -4 5 5 11 107 71 72 43 73 41 -31 70
l-57 15 62 64 c60 61 64 64 102 58 22 -2 91 -8 154 -11z"/>
<path d="M2354 8623 c-68 -162 -98 -312 -98 -488 0 -151 15 -229 71 -365 60
-146 190 -324 310 -424 138 -116 443 -235 602 -236 45 0 52 -2 47 -17 -16 -41
-25 -104 -19 -134 l6 -32 -53 7 c-69 9 -218 57 -313 100 -212 97 -457 294
-613 493 -73 92 -166 244 -190 312 -24 65 -31 69 -43 25 -41 -154 -52 -364
-27 -504 38 -209 163 -406 342 -537 35 -26 62 -48 60 -51 -10 -10 -170 40
-236 73 -77 39 -180 111 -180 126 0 5 -5 9 -11 9 -27 0 27 -231 82 -350 81
-174 231 -340 395 -437 l88 -53 -46 0 c-91 0 -258 46 -344 94 l-43 24 6 -31
c11 -60 62 -188 109 -275 79 -145 235 -284 392 -348 29 -11 56 -25 60 -29 15
-16 -194 3 -256 23 l-64 20 7 -26 c8 -35 84 -157 140 -226 106 -130 278 -232
460 -272 l30 -7 -30 -9 c-16 -5 -74 -9 -127 -10 -114 -2 -114 -1 -16 -94 129
-124 277 -199 469 -238 l63 -13 -57 -26 c-31 -14 -57 -30 -57 -36 0 -17 62
-59 151 -102 90 -44 246 -89 313 -89 l41 -1 -37 -33 -38 -33 98 -46 c53 -25
125 -57 160 -71 l62 -25 189 64 c459 155 800 318 1046 499 112 82 115 91 114
306 0 164 -2 184 -40 351 l-24 106 -31 -126 c-55 -223 -126 -371 -250 -523
-55 -66 -186 -183 -288 -257 l-47 -33 34 68 c50 100 88 228 146 489 29 127 70
291 92 365 22 74 42 144 45 155 3 11 -32 -36 -77 -105 -107 -161 -260 -318
-364 -372 -66 -34 -144 -62 -152 -54 -2 2 8 17 22 32 82 88 145 239 198 477
39 171 68 241 125 300 51 53 27 46 -64 -19 -93 -65 -260 -234 -330 -333 -27
-39 -53 -71 -57 -71 -5 0 -6 4 -3 8 2 4 19 71 36 147 66 291 167 473 318 577
24 17 42 32 39 34 -2 2 -47 -7 -99 -20 -98 -25 -224 -78 -279 -117 l-31 -22
17 34 c79 152 205 271 350 326 l60 24 -120 -6 c-105 -4 -208 -20 -279 -41 -34
-10 77 97 139 135 78 48 166 77 288 97 59 9 106 19 104 21 -15 14 -359 56
-397 48 -40 -9 -38 6 8 47 87 79 216 150 342 190 l75 23 -135 5 -135 5 60 29
c233 112 507 155 781 122 200 -24 356 -80 466 -169 38 -30 68 -73 68 -96 0
-21 -52 -61 -93 -72 -24 -6 -75 -9 -120 -6 -79 5 -106 15 -217 80 -111 64
-317 24 -442 -86 l-28 -24 73 -6 c138 -11 295 -79 282 -122 -19 -60 -19 -62
22 -68 78 -13 183 -7 246 14 68 23 190 87 280 147 l58 39 68 -12 c123 -24 192
-64 242 -143 15 -24 31 -64 35 -88 9 -59 -19 -176 -58 -244 l-31 -55 -10 30
c-14 44 -54 82 -106 100 -51 18 -331 36 -541 34 -129 -1 -298 -19 -385 -39
-61 -15 -239 -100 -280 -134 l-30 -25 80 27 c71 23 96 26 215 26 180 0 201 -9
87 -39 -228 -59 -373 -184 -471 -407 -26 -58 -70 -217 -63 -224 2 -2 16 20 32
48 80 149 189 270 303 337 39 22 73 41 76 41 3 0 -2 -21 -10 -47 -26 -85 -35
-188 -23 -269 11 -70 29 -102 29 -51 0 35 55 139 100 189 l39 43 1 -50 c0 -27
5 -70 11 -95 15 -67 89 -251 99 -245 16 10 51 147 57 226 3 44 9 76 13 72 4
-4 21 -44 38 -88 79 -211 88 -411 27 -600 -13 -40 95 90 130 156 79 151 83
300 15 634 -20 100 -27 249 -12 272 31 49 308 75 403 38 15 -6 59 -153 59
-197 0 -30 20 -30 75 2 249 142 367 446 262 673 -50 108 -175 206 -314 248
-34 9 -48 21 -67 53 -13 23 -49 65 -79 93 -136 129 -308 204 -568 248 -81 13
-375 14 -439 0 -14 -2 -61 -12 -105 -21 -185 -38 -383 -121 -555 -234 l-94
-62 52 -27 52 -26 -111 -110 c-135 -134 -176 -183 -157 -189 7 -2 34 -12 61
-22 l47 -17 -34 -41 c-67 -83 -126 -230 -126 -318 0 -21 2 -38 4 -38 2 0 20 7
40 15 20 8 36 12 36 8 0 -5 -18 -54 -40 -111 -53 -142 -72 -229 -68 -332 3
-78 4 -83 16 -59 8 14 42 51 76 81 l63 56 -24 -106 c-32 -147 -105 -382 -164
-532 -63 -159 -64 -161 -77 -119 -48 149 -58 401 -23 579 l19 95 -112 116
c-153 160 -234 303 -270 483 -24 113 -22 290 4 391 20 81 103 267 127 287 25
20 13 34 -69 78 -338 178 -597 375 -786 595 -184 214 -335 476 -409 706 -21
65 -41 119 -45 119 -4 0 -15 -17 -24 -37z m755 -1353 c97 -68 112 -85 46 -49
-141 76 -242 159 -336 278 -118 147 -101 141 63 -22 90 -89 192 -182 227 -207z
m-466 -369 c123 -70 323 -128 477 -137 l105 -7 -3 -63 -4 -63 -126 -3 -127 -3
80 -27 c44 -14 102 -29 128 -33 52 -8 58 -15 76 -90 7 -27 18 -56 24 -64 10
-12 1 -13 -68 -8 -142 12 -309 72 -417 150 -160 115 -288 299 -288 412 l0 35
44 -34 c25 -18 69 -48 99 -65z m2948 -51 c44 0 49 -10 19 -40 -30 -30 -73 -26
-104 11 -44 52 -32 94 16 54 20 -17 42 -25 69 -25z m-2901 -534 c135 -84 348
-136 555 -136 l80 0 35 -57 c19 -32 36 -61 38 -65 2 -3 -18 -10 -45 -13 -26
-4 -57 -8 -68 -10 -11 -2 -42 -4 -70 -5 -71 -2 -35 -13 109 -35 82 -12 123
-23 135 -35 9 -10 29 -31 44 -49 l29 -31 -29 -11 c-15 -6 -63 -18 -105 -27
-148 -31 -343 14 -495 115 -124 83 -214 179 -257 274 -24 52 -43 129 -33 129
3 0 37 -20 77 -44z m264 -651 c143 -54 423 -57 629 -7 42 11 77 16 77 12 0
-18 -30 -77 -47 -92 -27 -24 -85 -48 -181 -73 l-83 -22 101 -32 c148 -47 345
-132 329 -142 -30 -16 -183 -50 -252 -55 -128 -10 -272 32 -403 118 -122 79
-230 201 -262 297 -13 38 -20 39 92 -4z m728 -665 c38 -40 53 -62 45 -67 -6
-4 -38 -14 -71 -23 l-59 -17 94 -61 c52 -34 88 -62 82 -62 -21 0 -188 75 -266
120 -41 23 -100 66 -133 95 l-59 54 100 1 c55 1 120 5 145 9 25 5 50 9 55 10
6 0 36 -26 67 -59z m653 -119 c5 -16 19 -20 95 -26 50 -4 90 -10 90 -14 0 -3
-28 -37 -62 -75 l-61 -68 13 -79 c7 -44 10 -82 7 -85 -3 -3 -38 13 -77 35
l-73 41 -74 -41 c-41 -22 -77 -39 -79 -37 -2 3 3 42 12 87 l16 83 -69 71 c-37
38 -63 71 -58 73 6 1 48 6 95 9 l85 7 38 82 39 81 28 -62 c16 -34 31 -71 35
-82z"/>
<path d="M1761 6885 c-64 -91 -133 -237 -155 -325 -66 -258 14 -647 236 -1145
123 -275 312 -570 524 -815 161 -187 459 -457 562 -509 41 -21 137 -51 161
-51 9 0 -90 107 -220 238 -426 428 -627 686 -797 1023 -69 137 -172 403 -160
414 2 3 24 -30 48 -73 264 -471 426 -695 796 -1102 234 -257 570 -570 613
-570 10 0 74 26 142 59 68 32 166 76 217 97 86 36 91 39 65 48 -156 49 -453
200 -613 311 -336 235 -468 349 -645 562 -183 220 -307 424 -417 688 -101 243
-152 418 -174 599 -6 54 -5 59 11 53 9 -4 29 -10 43 -14 l26 -6 -27 44 c-108
175 -174 370 -173 506 1 24 -2 43 -5 43 -4 0 -30 -34 -58 -75z"/>
<path d="M8490 6918 c-1 -136 -75 -360 -162 -485 -28 -41 -28 -43 -8 -43 12 0
30 5 41 10 17 10 19 7 19 -27 -1 -97 -74 -368 -157 -578 -177 -449 -461 -836
-818 -1115 -359 -280 -665 -426 -1227 -584 -56 -16 -59 -19 -117 -105 -51 -75
-111 -154 -179 -234 -14 -16 -13 -16 14 -8 16 6 97 31 179 56 619 192 970 332
1182 474 264 177 606 552 842 924 148 232 371 659 371 709 0 9 5 20 12 24 8 5
9 2 5 -10 -4 -9 -13 -42 -21 -74 -129 -497 -446 -1017 -905 -1484 -117 -120
-123 -128 -96 -128 110 0 376 219 589 484 252 313 477 750 595 1158 100 344
106 577 18 788 -32 80 -110 215 -151 265 l-25 30 -1 -47z m49 -772 c-7 -31
-14 -54 -16 -52 -3 2 1 30 7 61 6 31 14 55 16 52 2 -2 -1 -29 -7 -61z m-30
-127 c-6 -30 -16 -58 -22 -64 -6 -7 -8 -7 -5 0 3 6 11 36 18 68 6 32 14 57 16
54 2 -2 -1 -28 -7 -58z"/>
<path d="M6048 6763 c-9 -10 -23 -35 -31 -55 l-16 -37 57 44 c31 25 63 45 70
45 7 0 10 5 7 10 -10 17 -71 11 -87 -7z"/>
<path d="M5554 6588 c-6 -10 24 -9 51 2 16 6 14 8 -13 7 -18 0 -35 -4 -38 -9z"/>
<path d="M1417 5925 c-61 -294 -90 -540 -91 -790 -2 -339 29 -602 95 -831 21
-71 22 -72 73 -95 29 -13 243 -122 477 -241 233 -119 442 -224 464 -233 l40
-17 -35 35 c-19 19 -102 97 -184 173 -165 153 -266 265 -266 293 0 19 38 41
73 41 15 0 47 -28 102 -91 140 -159 405 -397 572 -512 l52 -36 53 36 c29 20
70 46 90 58 l37 21 -81 60 c-169 122 -288 223 -447 379 -333 327 -510 563
-701 940 -137 270 -215 488 -282 785 l-24 105 -17 -80z m43 -598 c9 -7 24 -34
34 -62 85 -227 235 -521 374 -729 79 -119 90 -141 76 -149 -9 -5 -22 -25 -31
-44 -14 -34 -15 -35 -34 -17 -47 42 -239 329 -316 470 -53 99 -203 420 -210
450 -3 15 5 28 29 47 18 15 38 31 43 37 13 12 17 12 35 -3z"/>
<path d="M6036 5950 c-3 -25 -12 -101 -21 -170 -40 -336 -145 -580 -351 -815
-243 -280 -561 -485 -1049 -678 -185 -73 -234 -91 -495 -181 -451 -156 -814
-324 -1050 -485 -435 -297 -668 -581 -712 -867 -14 -88 -1 -190 33 -255 39
-77 334 -361 519 -501 435 -328 936 -563 1451 -681 174 -40 259 -54 244 -40
-5 5 -53 35 -106 65 -124 74 -187 121 -282 216 -273 268 -344 611 -193 926
106 220 347 458 639 630 43 26 160 92 260 148 509 283 634 377 865 653 226
269 376 609 427 966 17 121 21 519 5 519 -5 0 -10 -10 -11 -22 0 -13 -2 -30
-4 -38 -33 -166 -69 -262 -135 -364 -60 -92 -77 -103 -49 -34 73 182 100 334
101 578 0 173 -17 296 -60 420 l-19 55 -7 -45z m-248 -1290 c7 -11 19 -20 27
-20 19 0 19 -5 1 -33 -7 -12 -13 -32 -12 -43 2 -20 0 -21 -21 -11 -17 8 -27 7
-35 -1 -19 -19 -25 -14 -20 16 2 18 -2 33 -12 41 -23 19 -20 31 8 31 16 0 27
7 31 20 3 11 9 20 13 20 4 0 13 -9 20 -20z m-368 -390 c14 -33 37 -50 69 -50
28 0 26 -11 -8 -44 -25 -24 -28 -32 -21 -62 9 -38 5 -40 -35 -20 -25 13 -32
13 -56 0 -42 -21 -48 -18 -38 23 7 33 5 41 -16 64 -14 14 -25 28 -25 31 0 3
15 9 34 12 24 5 38 15 52 41 10 19 21 35 25 35 4 0 12 -14 19 -30z m-363 -263
c-37 -24 -45 -32 -52 -54 -5 -18 -2 -23 12 -23 10 0 33 -9 50 -20 40 -24 35
-44 -14 -62 l-35 -13 6 -53 c7 -58 7 -58 -51 -16 -39 30 -40 30 -86 -1 l-37
-26 0 34 c0 18 6 39 13 46 10 11 9 14 -2 18 -7 3 -27 18 -44 33 l-31 27 45 32
c24 18 48 39 52 47 4 8 22 14 40 15 18 0 55 7 82 14 64 16 74 17 52 2z m-1156
-254 l30 -6 -25 -26 c-22 -23 -25 -31 -17 -59 11 -36 6 -39 -27 -16 -20 14
-24 14 -44 0 -34 -24 -41 -20 -33 20 5 30 3 39 -14 51 -29 20 -26 30 9 38 20
4 36 17 47 38 l16 32 14 -33 c10 -24 21 -34 44 -39z m521 -148 c20 -41 25 -45
57 -45 62 0 67 -12 26 -56 -35 -37 -37 -42 -31 -86 4 -27 4 -48 1 -48 -3 0
-23 12 -44 26 l-40 26 -45 -27 -46 -27 6 34 c3 18 7 41 9 52 2 11 -10 32 -31
54 -42 43 -42 52 -5 52 51 0 78 17 92 54 7 20 17 36 21 36 5 0 18 -20 30 -45z
m-1102 -125 c16 -32 27 -40 57 -45 21 -4 43 -8 48 -9 6 -2 -7 -18 -27 -37 -34
-32 -36 -37 -31 -78 l6 -43 -41 21 -41 21 -36 -21 c-20 -12 -38 -19 -41 -16
-3 3 -1 22 5 43 10 36 9 40 -21 71 -33 34 -32 35 24 47 19 4 34 19 48 46 11
22 22 40 25 40 3 0 14 -18 25 -40z m565 -200 c28 -56 26 -54 105 -67 l55 -9
-47 -48 -47 -48 9 -50 c16 -82 16 -81 -47 -49 l-58 29 -59 -30 c-39 -19 -57
-25 -53 -15 3 7 8 38 12 68 6 52 5 55 -29 88 -20 19 -36 40 -36 47 0 7 23 15
56 19 l56 7 24 54 c13 30 26 54 29 54 2 0 16 -23 30 -50z m-1021 -367 c17 -39
22 -43 65 -48 25 -4 64 -10 86 -14 l40 -7 -63 -63 -62 -63 15 -74 c8 -40 15
-76 15 -78 0 -3 -34 11 -75 31 l-75 37 -76 -37 c-74 -37 -76 -37 -70 -15 3 13
11 49 17 80 l11 57 -57 63 -57 63 39 7 c21 4 59 10 84 13 l45 6 32 72 32 72
18 -30 c10 -17 26 -49 36 -72z m649 -13 c32 0 34 -10 6 -36 -17 -15 -20 -27
-16 -61 l4 -42 -29 15 c-27 14 -34 14 -69 0 -21 -9 -39 -14 -39 -12 0 1 5 18
11 36 11 29 9 34 -15 56 -35 33 -33 44 7 44 29 0 36 5 51 38 l18 37 22 -37
c16 -29 27 -38 49 -38z m281 -390 c18 0 22 -15 6 -25 -5 -3 -10 -19 -10 -34 0
-24 -4 -27 -35 -27 -31 0 -35 3 -35 27 0 15 -4 31 -10 34 -17 10 -11 25 9 25
10 0 22 8 26 18 6 16 7 16 19 0 7 -10 21 -18 30 -18z m-444 -140 l48 -41 48
31 c26 16 51 30 55 30 4 0 0 -28 -10 -63 l-17 -63 48 -35 c26 -19 48 -37 48
-40 0 -4 -26 -13 -57 -21 l-58 -14 -3 -44 c-4 -74 -7 -76 -58 -35 l-46 38 -54
-26 c-30 -15 -54 -22 -54 -17 0 5 9 33 20 62 11 29 16 54 11 56 -5 2 -29 17
-53 35 l-43 31 64 19 64 19 -6 59 c-3 33 -3 59 0 59 3 0 27 -18 53 -40z m420
-540 c21 0 27 -15 10 -25 -5 -3 -10 -17 -10 -31 0 -20 -4 -24 -19 -19 -11 3
-22 1 -26 -5 -11 -18 -25 -11 -25 13 0 13 -6 29 -12 36 -11 11 -10 14 1 18 7
3 20 14 29 24 14 16 17 17 25 4 4 -8 17 -15 27 -15z"/>
<path d="M8856 5892 c-46 -240 -132 -480 -271 -760 -135 -270 -262 -466 -446
-687 -84 -101 -212 -225 -232 -225 -10 0 -17 11 -19 28 -2 18 -10 28 -23 30
-11 2 -107 -40 -214 -93 -308 -153 -743 -319 -1521 -580 -445 -150 -548 -186
-719 -254 -124 -50 -437 -207 -571 -286 -360 -214 -607 -477 -695 -740 -22
-64 -27 -97 -27 -179 0 -56 5 -114 10 -131 l9 -30 18 45 c149 369 481 688 965
927 219 108 529 226 1170 445 431 147 934 333 1182 437 302 127 636 299 730
378 175 146 438 579 594 976 32 81 62 147 68 147 20 0 105 -66 106 -81 0 -9
-13 -45 -29 -80 -16 -35 -66 -152 -111 -259 -165 -389 -313 -652 -520 -925
-128 -169 -245 -299 -485 -545 -121 -124 -283 -290 -360 -370 -173 -181 -295
-292 -450 -412 -324 -251 -569 -387 -1040 -580 -364 -148 -470 -205 -581 -310
-105 -99 -174 -243 -174 -362 0 -72 35 -185 58 -188 51 -4 294 12 397 28 424
63 756 167 1125 355 562 285 1060 713 1424 1224 145 202 376 586 376 623 0 26
-40 52 -79 52 -45 0 -52 -7 -121 -135 -100 -184 -309 -508 -409 -635 -133
-168 -413 -458 -536 -555 -27 -22 -52 -43 -55 -46 -13 -14 -177 -134 -275
-200 -210 -142 -379 -234 -612 -333 -255 -108 -463 -154 -638 -142 -124 9
-189 17 -197 25 -4 4 43 22 105 40 227 67 375 114 507 163 389 145 748 358
1076 639 141 122 393 375 400 403 16 65 5 103 -33 112 -42 11 -71 -5 -116 -64
-65 -83 -327 -336 -437 -421 -321 -248 -662 -438 -925 -517 -78 -23 -109 -27
-235 -28 -80 0 -163 3 -185 7 -39 9 -38 9 120 66 433 156 812 365 1140 628 61
48 199 175 307 281 194 191 197 194 220 178 12 -9 39 -16 58 -16 32 0 49 12
151 106 63 59 243 235 401 392 l286 285 49 -20 c26 -12 65 -28 85 -37 l38 -16
24 47 c92 183 206 599 252 918 22 152 26 693 6 855 -21 169 -81 500 -91 500
-4 0 -14 -44 -25 -98z"/>
<path d="M1614 3871 c-23 -10 -44 -23 -47 -27 -8 -14 19 -86 100 -264 118
-261 311 -590 452 -769 50 -63 50 -63 56 -35 46 233 150 411 354 607 l70 68
-434 215 c-259 129 -449 218 -472 220 -25 3 -53 -2 -79 -15z m513 -528 c15
-31 25 -39 52 -43 l34 -5 -28 -33 c-21 -25 -26 -39 -21 -62 6 -34 -3 -37 -39
-14 -22 14 -26 14 -47 0 -32 -23 -38 -20 -32 14 5 23 0 36 -20 60 -34 42 -33
50 9 50 31 0 38 5 52 35 9 19 18 35 20 35 1 0 11 -17 20 -37z"/>
<path d="M7821 3773 c-323 -156 -736 -314 -1601 -613 -316 -109 -499 -176
-675 -245 -506 -200 -847 -428 -1056 -705 -99 -130 -190 -349 -188 -450 1 -85
57 -157 156 -202 83 -37 89 -37 91 15 8 140 87 336 191 474 64 84 208 231 281
286 282 212 529 320 1645 722 546 197 728 281 884 405 145 115 419 371 395
369 -5 0 -60 -26 -123 -56z"/>
<path d="M7040 2980 c-104 -44 -311 -122 -730 -275 -772 -282 -1030 -404
-1234 -586 -152 -135 -245 -268 -298 -422 -27 -80 -32 -108 -35 -217 -3 -100
0 -135 14 -175 18 -50 18 -50 78 -62 33 -6 100 -14 151 -18 l91 -6 -19 73
c-54 203 30 451 208 617 148 138 276 209 697 382 286 118 535 250 747 398 141
98 407 315 379 310 -2 0 -24 -9 -49 -19z"/>
</g>
</svg>
